<svg width="48" height="48" viewBox="0 0 48 48" fill="none" xmlns="http://www.w3.org/2000/svg">
<g clip-path="url(#clip0_888_13)">
<path d="M24.0014 0C18.829 0.0203782 13.7998 1.70125 9.65454 4.79506C5.5093 7.88887 2.46713 12.2321 0.976095 17.185C0.91239 17.3888 0.890106 17.6032 0.910556 17.8157C0.931007 18.0282 0.993779 18.2345 1.09517 18.4224C1.19657 18.6103 1.33454 18.776 1.50095 18.9097C1.66737 19.0434 1.85886 19.1425 2.06416 19.2011C2.47155 19.3199 2.90947 19.2721 3.28156 19.068C3.65366 18.864 3.92945 18.5205 4.04827 18.1131C5.4675 13.3187 8.56616 9.19599 12.7769 6.49974C16.9876 3.8035 22.0286 2.71416 26.9769 3.43119C31.9252 4.14821 36.4497 6.62362 39.7219 10.4042C42.9942 14.1847 44.7951 19.0174 44.7951 24.0174C44.7951 29.0174 42.9942 33.8501 39.7219 37.6306C36.4497 41.4112 31.9252 43.8866 26.9769 44.6036C22.0286 45.3206 16.9876 44.2313 12.7769 41.5351C8.56616 38.8388 5.4675 34.7161 4.04827 29.9217C3.99284 29.7171 3.8973 29.5256 3.76721 29.3582C3.63711 29.1908 3.47506 29.051 3.29046 28.9468C3.10585 28.8426 2.90239 28.7761 2.69187 28.7512C2.48135 28.7263 2.26798 28.7434 2.06416 28.8017C1.86066 28.8604 1.67084 28.9589 1.50572 29.0916C1.3406 29.2242 1.20345 29.3883 1.10224 29.5744C1.00102 29.7605 0.937756 29.9648 0.916102 30.1754C0.894448 30.3861 0.91484 30.599 0.976095 30.8018C2.23792 35.0728 4.66316 38.9085 7.98051 41.8798C11.2979 44.8511 15.3765 46.8408 19.7602 47.6264C24.1438 48.412 28.6596 47.9625 32.8023 46.3281C36.9451 44.6937 40.5514 41.9389 43.2178 38.3719C45.8843 34.8048 47.5057 30.5663 47.9007 26.1304C48.2958 21.6944 47.4488 17.2361 45.4546 13.254C43.4605 9.27197 40.3977 5.92328 36.6089 3.58255C32.8202 1.24183 28.4549 0.00138884 24.0014 0Z" fill="url(#paint0_linear_888_13)"/>
<path d="M1.60009 25.6017H26.5455L22.8653 29.2659C22.7154 29.4147 22.5963 29.5917 22.5151 29.7867C22.4339 29.9816 22.392 30.1908 22.392 30.402C22.392 30.6132 22.4339 30.8224 22.5151 31.0174C22.5963 31.2124 22.7154 31.3893 22.8653 31.5381C23.0141 31.6881 23.1911 31.8071 23.386 31.8883C23.581 31.9696 23.7902 32.0114 24.0014 32.0114C24.2126 32.0114 24.4218 31.9696 24.6168 31.8883C24.8117 31.8071 24.9887 31.6881 25.1375 31.5381L31.5378 25.1377C31.6835 24.9855 31.7977 24.8061 31.8739 24.6097C32.0339 24.2201 32.0339 23.7832 31.8739 23.3936C31.7977 23.1972 31.6835 23.0177 31.5378 22.8656L25.1375 16.4652C24.8362 16.1639 24.4275 15.9946 24.0014 15.9946C23.5753 15.9946 23.1666 16.1639 22.8653 16.4652C22.564 16.7665 22.3948 17.1752 22.3948 17.6013C22.3948 18.0274 22.564 18.436 22.8653 18.7373L26.5455 22.4015H1.60009C1.17572 22.4015 0.768732 22.5701 0.468656 22.8702C0.168581 23.1703 0 23.5773 0 24.0016C0 24.426 0.168581 24.833 0.468656 25.1331C0.768732 25.4332 1.17572 25.6017 1.60009 25.6017Z" fill="url(#paint1_linear_888_13)"/>
</g>
<defs>
<linearGradient id="paint0_linear_888_13" x1="3.65177" y1="4.08636e-05" x2="82.8199" y2="1.98513" gradientUnits="userSpaceOnUse">
<stop stop-color="#11AE88"/>
<stop offset="1" stop-color="#2A84EE"/>
</linearGradient>
<linearGradient id="paint1_linear_888_13" x1="1.86735" y1="15.9946" x2="55.5471" y2="18.7353" gradientUnits="userSpaceOnUse">
<stop stop-color="#11AE88"/>
<stop offset="1" stop-color="#2A84EE"/>
</linearGradient>
<clipPath id="clip0_888_13">
<rect width="48" height="48" fill="white"/>
</clipPath>
</defs>
</svg>
